Coordinates
version=1
nRows=26
nColumns=22
inDegrees=yes

Units are S.I. units (second, meters, Newtons, ...)
If the header above contains a line with 'inDegrees', this indicates whether rotational values are in degrees (yes) or radians (no).

endheader
time	pelvis_tilt	pelvis_list	pelvis_rotation	pelvis_tx	pelvis_ty	pelvis_tz	hip_flexion_r	hip_adduction_r	hip_rotation_r	knee_angle_r	ankle_angle_r	subtalar_angle_r	hip_flexion_l	hip_adduction_l	hip_rotation_l	knee_angle_l	ankle_angle_l	subtalar_angle_l	lumbar_extension	lumbar_bending	lumbar_rotation
      0.99000000	      1.28863807	     -8.96383651	     24.48534088	     -0.33109907	      0.92841934	      0.72192794	     14.33001440	      7.98774938	      0.82894995	    -18.91884311	      7.01934979	      4.95146883	     17.66103617	     -8.51734027	      3.90700539	    -69.17177109	    -16.02745393	     -2.94850684	     -8.71836546	      7.38764772	     -4.97199782
      1.00000000	      1.55755660	     -8.86851250	     24.91048516	     -0.32371204	      0.92937387	      0.71897138	     13.32676187	      8.06126070	      0.65860210	    -18.63681092	      7.42966946	      4.36630320	     19.14338218	     -8.46438072	      3.72681540	    -70.36851461	    -14.38205433	     -3.43024979	     -9.05838083	      7.35521787	     -4.37524720
      1.01000000	      1.83450895	     -8.70629613	     25.32974723	     -0.31636813	      0.93038914	      0.71585360	     12.28937805	      8.07149078	      0.46853321	    -18.36423639	      7.77919125	      3.95533776	     20.50312509	     -8.29344908	      3.55755357	    -71.24844457	    -12.63143266	     -3.83483249	     -9.41956249	      7.26468531	     -3.78105363
      1.02000000	      2.10294781	     -8.48610760	     25.74428983	     -0.30906143	      0.93141605	      0.71260387	     11.21946206	      8.02763042	      0.31321726	    -18.07311468	      8.17753675	      3.55603003	     21.76157919	     -8.01344958	      3.39967661	    -71.81783275	    -10.89477661	     -4.22604619	     -9.77795488	      7.11559425	     -3.20222862
      1.03000000	      2.35798208	     -8.22470359	     26.15916861	     -0.30180757	      0.93242906	      0.70920600	     10.13139131	      7.93620650	      0.15347661	    -17.76499726	      8.57920656	      3.20810589	     22.92684859	     -7.64084588	      3.26343705	    -72.07699781	     -9.20885850	     -4.47908235	    -10.12261117	      6.93017394	     -2.63987564
      1.04000000	      2.59426911	     -7.93457271	     26.57239598	     -0.29461228	      0.93339580	      0.70568202	      9.03881481	      7.80648518	     -0.02091050	    -17.44406305	      8.98325047	      2.89541695	     24.00682074	     -7.19983548	      3.14139539	    -72.02752152	     -7.60617507	     -4.60322614	    -10.44474673	      6.71691880	     -2.08832894
      1.05000000	      2.81221852	     -7.62650922	     26.98975455	     -0.28748441	      0.93429176	      0.70202913	      7.94454057	      7.64666811	     -0.22489996	    -17.10636424	      9.39175825	      2.62175683	     25.00338000	     -6.70999025	      3.03615142	    -71.67078537	     -6.10850847	     -4.61398397	    -10.74127939	      6.49098202	     -1.55641430
      1.06000000	      3.00758248	     -7.31570149	     27.40925275	     -0.28042770	      0.93508323	      0.69827075	      6.86246752	      7.46971446	     -0.45594065	    -16.75528328	      9.79797820	      2.38286552	     25.92530601	     -6.19913302	      2.94041071	    -71.00983365	     -4.72645571	     -4.54929704	    -11.00597031	      6.26351426	     -1.03917069
      1.07000000	      3.16932889	     -7.02965811	     27.82754711	     -0.27344622	      0.93570103	      0.69443143	      5.83689012	      7.29526050	     -0.74053678	    -16.42548085	     10.20413186	      2.21869226	     26.80036765	     -5.70301208	      2.84953181	    -70.06215128	     -3.44363584	     -4.42830879	    -11.21553865	      6.05506860	     -0.52187188
      1.08000000	      3.34107493	     -6.72544147	     28.26415527	     -0.26652057	      0.93626997	      0.69047177	      4.75420916	      7.11331261	     -0.98569032	    -16.03020104	     10.58113175	      2.02279810	     27.54878487	     -5.19597784	      2.77423788	    -68.80967455	     -2.33325235	     -4.29082505	    -11.44012723	      5.84499697	     -0.03566582
      1.09000000	      3.47709848	     -6.46431518	     28.69435465	     -0.25964289	      0.93663043	      0.68645766	      3.73438562	      6.95440003	     -1.25923845	    -15.64851317	     10.94058886	      1.88020864	     28.25503134	     -4.74620858	      2.68072143	    -67.28813985	     -1.32632452	     -4.13274460	    -11.60384872	      5.66680399	      0.44760631
      1.10000000	      3.59315545	     -6.23568560	     29.12419573	     -0.25281048	      0.93680982	      0.68238302	      2.74771240	      6.81994180	     -1.52914307	    -15.26414607	     11.27718690	      1.76183602	     28.89617268	     -4.34818733	      2.57443554	    -65.50756468	     -0.43913151	     -3.96526894	    -11.73301527	      5.51370499	      0.92652987
      1.11000000	      3.67795516	     -6.06059057	     29.54585366	     -0.24600597	      0.93675415	      0.67825623	      1.83723640	      6.72029318	     -1.82921550	    -14.91876763	     11.61546848	      1.68098254	     29.49667537	     -4.02823022	      2.44035527	    -63.49041945	      0.36008006	     -3.80892076	    -11.80378272	      5.40071179	      1.41633678
      1.12000000	      3.76714973	     -5.89931112	     29.96897027	     -0.23920791	      0.93658514	      0.67404821	      0.90537437	      6.64430902	     -2.08107784	    -14.53481913	     11.92420531	      1.58801990	     29.98693364	     -3.75497390	      2.29382054	    -61.22335056	      1.00033198	     -3.65348947	    -11.87669466	      5.30213160	      1.89307696
      1.13000000	      3.82652014	     -5.79307086	     30.37786415	     -0.23240239	      0.93618662	      0.66978854	      0.03875880	      6.60568691	     -2.34756274	    -14.17066850	     12.23732741	      1.52005310	     30.43293289	     -3.56773357	      2.10839086	    -58.74096612	      1.56719216	     -3.52734599	    -11.89242030	      5.23965829	      2.36110230
      1.14000000	      3.88433972	     -5.71597392	     30.78255554	     -0.22556902	      0.93562255	      0.66543140	     -0.80634225	      6.59587161	     -2.62202888	    -13.82744319	     12.56628852	      1.46909141	     30.78847328	     -3.45024309	      1.87941529	    -56.04846776	      2.07075875	     -3.43223721	    -11.88749698	      5.20289390	      2.82140256
      1.15000000	      3.92729023	     -5.68071859	     31.17852917	     -0.21871859	      0.93486402	      0.66100344	     -1.61566675	      6.62194503	     -2.88742305	    -13.48951828	     12.90162836	      1.43790524	     31.07983933	     -3.40274401	      1.61226265	    -53.16429460	      2.52102436	     -3.36960959	    -11.84732981	      5.19275766	      3.26648448
      1.16000000	      3.97959267	     -5.66343503	     31.57751811	     -0.21182751	      0.93397508	      0.65647327	     -2.44589357	      6.67885941	     -3.10763240	    -13.12357326	     13.22804254	      1.42029467	     31.26892372	     -3.40801072	      1.30962299	    -50.09957269	      2.89553844	     -3.34286270	    -11.80249127	      5.19842984	      3.67629825
      1.17000000	      4.00743600	     -5.69221438	     31.96573370	     -0.20489573	      0.93284775	      0.65185746	     -3.20987186	      6.76502015	     -3.35597591	    -12.80226719	     13.59427338	      1.42627653	     31.41773883	     -3.48367425	      0.93091744	    -46.90149634	      3.27697055	     -3.33911575	    -11.69855315	      5.22845271	      4.07361173
      1.18000000	      4.04122329	     -5.73536079	     32.35922529	     -0.19790645	      0.93157560	      0.64712566	     -3.99204269	      6.87439480	     -3.57659632	    -12.45711225	     13.95650702	      1.44190501	     31.48062756	     -3.60538309	      0.47885835	    -43.58815405	      3.60065527	     -3.38232774	    -11.58166320	      5.26888191	      4.42673886
      1.19000000	      4.07505087	     -5.80386066	     32.75916822	     -0.19085447	      0.93013113	      0.64229563	     -4.77268732	      7.01434723	     -3.78153220	    -12.10104804	     14.31980972	      1.46372361	     31.48681877	     -3.77682242	     -0.06691363	    -40.21242133	      3.87247207	     -3.48730925	    -11.43582310	      5.32211074	      4.73603203
      1.20000000	      4.10491212	     -5.89285890	     33.16376684	     -0.18372225	      0.92851026	      0.63736672	     -5.54639890	      7.17684598	     -3.97889834	    -11.74269549	     14.68836834	      1.48620315	     31.45184505	     -3.99048784	     -0.74558893	    -36.83281225	      4.10682699	     -3.65388548	    -11.25546935	      5.37866712	      5.00087412
      1.21000000	      4.14316408	     -5.99913183	     33.58201107	     -0.17652849	      0.92673675	      0.63229161	     -6.33615396	      7.36542777	     -4.15855940	    -11.36410558	     15.03634942	      1.50729814	     31.38320985	     -4.23405298	     -1.57945242	    -33.51520533	      4.31178147	     -3.90517203	    -11.05382392	      5.45218162	      5.21196674
      1.22000000	      4.14549972	     -6.11448253	     33.97396163	     -0.16925005	      0.92476419	      0.62712757	     -7.05871681	      7.53592128	     -4.36075466	    -11.05738459	     15.44587427	      1.52200762	     31.32984695	     -4.49007385	     -2.65713710	    -30.33130501	      4.48594996	     -4.09920276	    -10.79492534	      5.49469513	      5.41952113
      1.23000000	      4.15472937	     -6.22949710	     34.36291894	     -0.16191244	      0.92267995	      0.62181894	     -7.79421320	      7.70939692	     -4.53958246	    -10.75266150	     15.82631384	      1.53323186	     31.27048743	     -4.74008592	     -3.93335808	    -27.35545188	      4.65664255	     -4.30698104	    -10.52905728	      5.53530886	      5.58266046
      1.24000000	      4.14020312	     -6.33972249	     34.72010632	     -0.15450037	      0.92046648	      0.61640114	     -8.48835337	      7.85634733	     -4.70482455	    -10.50816936	     16.21205391	      1.54785100	     31.24264292	     -4.96207417	     -5.41164609	    -24.65793568	      4.83617283	     -4.47100375	    -10.23000542	      5.54050489	      5.73205018
